<svg width="20" height="21" viewBox="0 0 20 21" fill="none" xmlns="http://www.w3.org/2000/svg">
<mask id="mask0_2533_3561" style="mask-type:luminance" maskUnits="userSpaceOnUse" x="0" y="0" width="20" height="21">
<path d="M19.6307 8.55682H10.3125V12.4205H15.6761C15.1761 14.875 13.0852 16.2841 10.3125 16.2841C7.03978 16.2841 4.40341 13.6477 4.40341 10.375C4.40341 7.10227 7.03978 4.46591 10.3125 4.46591C11.7216 4.46591 12.9943 4.96591 13.9943 5.78409L16.9034 2.875C15.1307 1.32955 12.858 0.375 10.3125 0.375C4.76705 0.375 0.3125 4.82955 0.3125 10.375C0.3125 15.9205 4.76705 20.375 10.3125 20.375C15.3125 20.375 19.858 16.7386 19.858 10.375C19.858 9.78409 19.7671 9.14773 19.6307 8.55682Z" fill="white"/>
</mask>
<g mask="url(#mask0_2533_3561)">
<path d="M-0.597656 16.283V4.46484L7.12962 10.3739L-0.597656 16.283Z" fill="#FBBC05"/>
</g>
<mask id="mask1_2533_3561" style="mask-type:luminance" maskUnits="userSpaceOnUse" x="0" y="0" width="20" height="21">
<path d="M19.6307 8.55682H10.3125V12.4205H15.6761C15.1761 14.875 13.0852 16.2841 10.3125 16.2841C7.03978 16.2841 4.40341 13.6477 4.40341 10.375C4.40341 7.10227 7.03978 4.46591 10.3125 4.46591C11.7216 4.46591 12.9943 4.96591 13.9943 5.78409L16.9034 2.875C15.1307 1.32955 12.858 0.375 10.3125 0.375C4.76705 0.375 0.3125 4.82955 0.3125 10.375C0.3125 15.9205 4.76705 20.375 10.3125 20.375C15.3125 20.375 19.858 16.7386 19.858 10.375C19.858 9.78409 19.7671 9.14773 19.6307 8.55682Z" fill="white"/>
</mask>
<g mask="url(#mask1_2533_3561)">
<path d="M-0.597656 4.46485L7.12962 10.3739L10.3114 7.60121L21.2205 5.82848V-0.535156H-0.597656V4.46485Z" fill="#EA4335"/>
</g>
<mask id="mask2_2533_3561" style="mask-type:luminance" maskUnits="userSpaceOnUse" x="0" y="0" width="20" height="21">
<path d="M19.6307 8.55682H10.3125V12.4205H15.6761C15.1761 14.875 13.0852 16.2841 10.3125 16.2841C7.03978 16.2841 4.40341 13.6477 4.40341 10.375C4.40341 7.10227 7.03978 4.46591 10.3125 4.46591C11.7216 4.46591 12.9943 4.96591 13.9943 5.78409L16.9034 2.875C15.1307 1.32955 12.858 0.375 10.3125 0.375C4.76705 0.375 0.3125 4.82955 0.3125 10.375C0.3125 15.9205 4.76705 20.375 10.3125 20.375C15.3125 20.375 19.858 16.7386 19.858 10.375C19.858 9.78409 19.7671 9.14773 19.6307 8.55682Z" fill="white"/>
</mask>
<g mask="url(#mask2_2533_3561)">
<path d="M-0.597656 16.283L13.0387 5.82848L16.6296 6.28303L21.2205 -0.535156V21.283H-0.597656V16.283Z" fill="#34A853"/>
</g>
<mask id="mask3_2533_3561" style="mask-type:luminance" maskUnits="userSpaceOnUse" x="0" y="0" width="20" height="21">
<path d="M19.6307 8.55682H10.3125V12.4205H15.6761C15.1761 14.875 13.0852 16.2841 10.3125 16.2841C7.03978 16.2841 4.40341 13.6477 4.40341 10.375C4.40341 7.10227 7.03978 4.46591 10.3125 4.46591C11.7216 4.46591 12.9943 4.96591 13.9943 5.78409L16.9034 2.875C15.1307 1.32955 12.858 0.375 10.3125 0.375C4.76705 0.375 0.3125 4.82955 0.3125 10.375C0.3125 15.9205 4.76705 20.375 10.3125 20.375C15.3125 20.375 19.858 16.7386 19.858 10.375C19.858 9.78409 19.7671 9.14773 19.6307 8.55682Z" fill="white"/>
</mask>
<g mask="url(#mask3_2533_3561)">
<path d="M21.2216 21.283L7.13068 10.3739L5.3125 9.0103L21.2216 4.46484V21.283Z" fill="#4285F4"/>
</g>
</svg>
